<?xml version="1.0" encoding="UTF-8" standalone="no"?>
<svg
   xmlns:dc="http://purl.org/dc/elements/1.1/"
   xmlns:cc="http://creativecommons.org/ns#"
   xmlns:rdf="http://www.w3.org/1999/02/22-rdf-syntax-ns#"
   xmlns:svg="http://www.w3.org/2000/svg"
   xmlns="http://www.w3.org/2000/svg"
   xmlns:sodipodi="http://sodipodi.sourceforge.net/DTD/sodipodi-0.dtd"
   xmlns:inkscape="http://www.inkscape.org/namespaces/inkscape"
   version="1.1"
   x="0px"
   y="0px"
   viewBox="0 0 85.311 100"
   enable-background="new 0 0 85.311 100"
   xml:space="preserve"
   id="svg2"
   inkscape:version="0.48.5 r10040"
   width="100%"
   height="100%"
   sodipodi:docname="rucksack.svg"
   inkscape:export-filename="/Users/scottjohnson/Downloads/noun_2551.png"
   inkscape:export-xdpi="1266.3022"
   inkscape:export-ydpi="1266.3022"><metadata
     id="metadata22"><rdf:RDF><cc:Work
         rdf:about=""><dc:format>image/svg+xml</dc:format><dc:type
           rdf:resource="http://purl.org/dc/dcmitype/StillImage" /><dc:title></dc:title></cc:Work></rdf:RDF></metadata><defs
     id="defs20" /><sodipodi:namedview
     pagecolor="#ffffff"
     bordercolor="#666666"
     borderopacity="1"
     objecttolerance="10"
     gridtolerance="10"
     guidetolerance="10"
     inkscape:pageopacity="0"
     inkscape:pageshadow="2"
     inkscape:window-width="1121"
     inkscape:window-height="802"
     id="namedview18"
     showgrid="false"
     inkscape:zoom="2.36"
     inkscape:cx="-32.3445"
     inkscape:cy="50"
     inkscape:window-x="0"
     inkscape:window-y="0"
     inkscape:window-maximized="0"
     inkscape:current-layer="svg2" /><path
     style="fill:#000000;fill-opacity:1"
     inkscape:connector-curvature="0"
     d="m 67.968903,64.97663 c 0.028,-2.929 0.017,-9.357 -0.493,-15.71 0.045,2.677 0.115,5.127 0.206,6.409 0.051,0.735 0.163,4.585 0.287,9.301 z"
     id="path4" /><path
     style="fill:#000000;fill-opacity:1"
     inkscape:connector-curvature="0"
     d="m 43.472903,9.8846282 c 0.087,-2.0580001 -0.024,-4.2620002 1.72,-4.1360002 0.837,0.061 2.279,0.274 4.063,0.631 1.978,0.3960001 1.699,11.121001 1.699,11.121001 l 7.171,2.788 c 0.236,-7.761 -1.704,-16.7730011 -3.64,-17.3250011 -3.244,-0.925 -8.005,-2.85400005 -12.736001,-1.819 -3.161,0.691 -4.007,12.2960011 -4.007,12.2960011 l 5.532001,1.449 c 0,0 0.058,-1.712 0.198,-5.0050008 z"
     id="path6" /><path
     style="fill:#000000;fill-opacity:1"
     inkscape:connector-curvature="0"
     d="m 10.107901,49.11463 c 1.165,0.431 3.085,1.064 5.358001,1.777 1.699,-4.705 4.58,-8.294 4.58,-8.294 0,0 0.665,-1.743 4.006,-1.041 3.341,0.701 3.497,2.226 3.497,2.226 0,0 -2.164,3.508 -4.268,8.236 -0.13,0.292 -0.301,0.655 -0.431,1.102 5.297,1.544 10.415,2.911 11.887,3.045 2.897,0.265 10.174001,0.583 11.557001,-6.42 1.364,-6.911 2.714,-11.127 3.864,-13.759001 0.23,-0.575 0.437,-1.051 0.589,-1.395 0.313,-0.708 1.266,-2.128 2.652,-3.52 0,-0.001 0,-0.001 0,-0.002 0.004,-0.01 0.01,-0.015 0.018,-0.017 1.852,-1.85 4.472,-3.642 7.397,-3.631 0.154,0 0.342,0.019 0.551,0.051 -1.721,-1.914 -3.682,-3.544 -5.77,-4.349 -0.475,-0.183 -17.718001,-6.998 -22.870001,-6.269 -0.148,0.021 -0.286,0.041 -0.419,0.06 0.25,-0.036 0.419,-0.06 0.419,-0.06 0,0 -11.811,0.293 -19.621001,8.097 -4.0800003,4.076 -7.6620004,11.388 -9.9110005,18.414001 -0.029,1.783 2.2460001,4.023 6.9150005,5.749 z"
     id="path8" /><path
     style="fill:#000000;fill-opacity:1"
     inkscape:connector-curvature="0"
     d="m 33.156902,61.40063 c -2.322,-0.426 -6.635,-1.608 -11.232,-2.967 -0.7,2.769 -0.105,7.525001 -0.105,7.525001 0,0 -0.904,2.158 -4.467,1.369 -3.036001,-0.674 -2.958001,-2.865001 -2.958001,-2.865001 0,0 -0.776,-4.446 -0.092,-8.359 -4.3760003,-1.378 -8.0940004,-2.615 -9.4620004,-3.14 -1.6460001,-0.63 -2.8330001,-1.508 -3.6880002,-2.489 -0.063,0.389 -0.1189999,1.96 -0.17199989,2.334 -3.10199981,22.092001 3.33599999,31.606001 3.79200009,33.615001 0.613,2.701 12.3810014,8.364001 23.7410014,12.513001 6.59,2.406998 13.947,1.939998 16.869001,1.729998 l 0.214,-0.012 c 0.465,-8.541999 1.731,-30.776999 2.352,-44.384 -0.984,4.996 -9.233001,6.148 -14.792001,5.13 z"
     id="path10" /><path
     style="fill:#000000;fill-opacity:1"
     inkscape:connector-curvature="0"
     d="m 67.968903,64.97663 c -0.124,-4.716 -0.235,-8.564 -0.287,-9.303 -0.091,-1.28 -0.161,-3.73 -0.206,-6.408 -0.455,-5.656 -1.913,-11.727 -3.16,-14.882001 -2.096,-5.312 -8.183,1.351 -9.902,5.546001 -1.78,4.344 -3.465,54.419002 -3.629,59.383002 4.25,-1.107 10.338,-2.696 11.084,-3.867 1.581,-2.476001 2.438,-4.873001 2.833,-6.914001 0.262,-1.359 3.777,-2.63 3.777,-2.63 0,0 -0.249,-10.8 -0.474,-19.516 l -0.062,0.23 c 0,0.002 0.017,-0.599 0.026,-1.639001 z"
     id="path12" /><path
     style="fill:#000000;fill-opacity:1"
     inkscape:connector-curvature="0"
     d="m 83.553904,43.20163 c 0,0 -0.901,-10.732001 -1.105,-12.818001 -0.494,-5.037 -5.038,-21.2370009 -20.526001,-8.825 l 4.103,4.476 c 0,0 10.496001,-9.432 10.892001,13.042001 0.033,1.902 0.159,4.559 1.303,20.549 1.266,17.679001 -5.648,17.777001 -5.648,17.777001 l 0.312,7.518 c 0,0 2.568,-0.672 5.22,-1.788 3.753,-1.581 7.349,-8.198 7.349,-17.897 -0.004,-3.838001 -1.9,-22.034001 -1.9,-22.034001 z"
     id="path14" /><path
     style="fill:#000000;fill-opacity:1"
     inkscape:connector-curvature="0"
     d="m 29.314902,13.195629 3.424,-0.526 V 9.7716282 l 0.659,-2.3700001 c 0,0 -3.162,1.449 -4.083,2.8969999 -0.922,1.449001 -1.318,2.239001 -1.318,2.897001 0,0.659 1.318,0 1.318,0 z"
     id="path16" /></svg>